<svg width="24" height="24" viewBox="0 0 24 24" fill="none" xmlns="http://www.w3.org/2000/svg">
<path d="M20.5725 0H24V3.42857H20.5725V0Z" fill="white"/>
<path d="M20.5725 5.14285H24V8.57142H20.5725V5.14285Z" fill="white"/>
<path d="M15.4312 0H18.8586V3.42857H15.4312V0Z" fill="white"/>
<path d="M15.4312 5.14285H18.8586V8.57142H15.4312V5.14285Z" fill="white"/>
<path d="M19.7156 24H19.57C2.73243 23.0314 0.341754 8.82001 0.00757405 4.48287C-0.0447025 3.80289 0.175193 3.13 0.618886 2.61221C1.06258 2.09441 1.69373 1.77414 2.37348 1.72184C2.4414 1.71681 2.50964 1.7143 2.57819 1.7143H7.09391C7.43713 1.71396 7.77255 1.81673 8.05671 2.00929C8.34088 2.20185 8.56069 2.47533 8.68769 2.7943L9.99013 6.00001C10.1155 6.31162 10.1467 6.65322 10.0796 6.98237C10.0126 7.31153 9.85038 7.61373 9.61311 7.85144L7.78797 9.6943C8.07191 11.3154 8.8474 12.81 10.0093 13.9753C11.1711 15.1406 12.6632 15.9203 14.2831 16.2086L16.1425 14.3657C16.3837 14.131 16.6886 13.9725 17.0193 13.91C17.35 13.8475 17.6917 13.8838 18.0019 14.0143L21.2323 15.3086C21.5464 15.4396 21.8143 15.6612 22.002 15.9452C22.1897 16.2291 22.2887 16.5625 22.2862 16.9029V21.4286C22.2862 22.1106 22.0154 22.7646 21.5333 23.2469C21.0512 23.7291 20.3974 24 19.7156 24ZM2.57819 3.42858C2.46566 3.42822 2.35417 3.45003 2.25007 3.49278C2.14597 3.53552 2.05131 3.59835 1.97149 3.67769C1.89166 3.75703 1.82824 3.85132 1.78485 3.95517C1.74146 4.05903 1.71894 4.17042 1.71858 4.28298C1.71858 4.30681 1.71943 4.33055 1.72132 4.3543C2.11548 9.42858 4.64325 21.4286 19.6642 22.2857C19.8911 22.2993 20.114 22.2223 20.284 22.0715C20.4541 21.9206 20.5572 21.7085 20.5709 21.4816C20.572 21.4639 20.5725 21.4462 20.5725 21.4286V16.9029L17.3421 15.6086L14.8829 18.0514L14.4716 18C7.01679 17.0657 6.00568 9.60858 6.00568 9.53144L5.95427 9.12001L8.38778 6.66001L7.10247 3.42858H2.57819Z" fill="white"/>
</svg>
