<svg width="32.000000" height="32.000000" viewBox="0 0 32 32" fill="none" xmlns="http://www.w3.org/2000/svg" xmlns:xlink="http://www.w3.org/1999/xlink">
	<desc>
			Created with Pixso.
	</desc>
	<defs/>
	<path id="Vector" d="M27.42 0L31.99 0L31.99 4.57L27.42 4.57L27.42 0Z" fill="#FFFFFF" fill-opacity="1.000000" fill-rule="nonzero"/>
	<path id="Vector" d="M27.42 6.85L31.99 6.85L31.99 11.42L27.42 11.42L27.42 6.85Z" fill="#FFFFFF" fill-opacity="1.000000" fill-rule="nonzero"/>
	<path id="Vector" d="M20.57 0L25.14 0L25.14 4.57L20.57 4.57L20.57 0Z" fill="#FFFFFF" fill-opacity="1.000000" fill-rule="nonzero"/>
	<path id="Vector" d="M20.57 6.85L25.14 6.85L25.14 11.42L20.57 11.42L20.57 6.85Z" fill="#FFFFFF" fill-opacity="1.000000" fill-rule="nonzero"/>
	<path id="Vector" d="M26.28 32L26.09 32C3.64 30.7 0.45 11.76 0.01 5.97C-0.06 5.07 0.23 4.17 0.82 3.48C1.41 2.79 2.25 2.36 3.16 2.29C3.25 2.28 3.34 2.28 3.43 2.28L9.45 2.28C9.91 2.28 10.36 2.42 10.74 2.67C11.12 2.93 11.41 3.3 11.58 3.72L13.32 8C13.48 8.41 13.52 8.87 13.43 9.3C13.35 9.74 13.13 10.15 12.81 10.46L10.38 12.92C10.76 15.08 11.79 17.08 13.34 18.63C14.89 20.18 16.88 21.22 19.04 21.61L21.52 19.15C21.84 18.84 22.25 18.62 22.69 18.54C23.13 18.46 23.58 18.51 24 18.68L28.3 20.41C28.72 20.58 29.08 20.88 29.33 21.26C29.58 21.63 29.71 22.08 29.71 22.53L29.71 28.57C29.71 29.48 29.35 30.35 28.71 30.99C28.06 31.63 27.19 32 26.28 32ZM3.43 4.57C3.28 4.57 3.13 4.6 3 4.65C2.86 4.71 2.73 4.79 2.62 4.9C2.52 5 2.43 5.13 2.37 5.27C2.32 5.41 2.29 5.56 2.29 5.71C2.29 5.74 2.29 5.77 2.29 5.8C2.82 12.57 6.19 28.57 26.21 29.71C26.52 29.73 26.81 29.62 27.04 29.42C27.27 29.22 27.4 28.94 27.42 28.64C27.42 28.61 27.43 28.59 27.43 28.57L27.43 22.53L23.12 20.81L19.84 24.06L19.29 24C9.35 22.75 8 12.81 8 12.7L7.93 12.16L11.18 8.88L9.46 4.57L3.43 4.57Z" fill="#FFFFFF" fill-opacity="1.000000" fill-rule="nonzero"/>
</svg>
