<svg width="32.000000" height="32.000000" viewBox="0 0 32 32" fill="none" xmlns="http://www.w3.org/2000/svg" xmlns:xlink="http://www.w3.org/1999/xlink">
	<desc>
			Created with Pixso.
	</desc>
	<defs/>
	<path id="Vector" d="M8.88 0C3.99 0 0 3.99 0 8.88L0 23.11C0 28 3.99 32 8.88 32L23.11 32C28 32 32 28 32 23.11L32 8.88C32 3.99 28 0 23.11 0L8.88 0ZM8.88 1.77L23.11 1.77C27.04 1.77 30.22 4.95 30.22 8.88L30.22 23.11C30.22 27.04 27.04 30.22 23.11 30.22L8.88 30.22C4.95 30.22 1.77 27.04 1.77 23.11L1.77 8.88C1.77 4.95 4.95 1.77 8.88 1.77ZM25.77 5.33C25.28 5.33 24.88 5.73 24.88 6.22C24.88 6.71 25.28 7.11 25.77 7.11C26.26 7.11 26.66 6.71 26.66 6.22C26.66 5.73 26.26 5.33 25.77 5.33ZM16 7.11C13.11 7.11 10.83 8.22 9.33 9.9C7.84 11.59 7.11 13.8 7.11 16C7.11 18.19 7.84 20.4 9.33 22.09C10.83 23.77 13.11 24.88 16 24.88C18.88 24.88 21.16 23.77 22.66 22.09C24.15 20.4 24.88 18.19 24.88 16C24.88 13.8 24.15 11.59 22.66 9.9C21.16 8.22 18.88 7.11 16 7.11ZM16 8.88C18.44 8.88 20.16 9.77 21.33 11.09C22.5 12.4 23.11 14.19 23.11 16C23.11 17.8 22.5 19.59 21.33 20.9C20.16 22.22 18.44 23.11 16 23.11C13.55 23.11 11.83 22.22 10.66 20.9C9.49 19.59 8.88 17.8 8.88 16C8.88 14.19 9.49 12.4 10.66 11.09C11.83 9.77 13.55 8.88 16 8.88Z" fill="#FFFEFE" fill-opacity="1.000000" fill-rule="nonzero"/>
</svg>
