<svg width="24" height="24" viewBox="0 0 24 24" fill="none" xmlns="http://www.w3.org/2000/svg">
<path d="M6.66667 0C2.99295 0 0 2.99295 0 6.66667V17.3333C0 21.0071 2.99295 24 6.66667 24H17.3333C21.0071 24 24 21.0071 24 17.3333V6.66667C24 2.99295 21.0071 0 17.3333 0H6.66667ZM6.66667 1.33333H17.3333C20.2863 1.33333 22.6667 3.71372 22.6667 6.66667V17.3333C22.6667 20.2863 20.2863 22.6667 17.3333 22.6667H6.66667C3.71372 22.6667 1.33333 20.2863 1.33333 17.3333V6.66667C1.33333 3.71372 3.71372 1.33333 6.66667 1.33333ZM19.3333 4C18.9651 4 18.6667 4.29848 18.6667 4.66667C18.6667 5.03485 18.9651 5.33333 19.3333 5.33333C19.7015 5.33333 20 5.03485 20 4.66667C20 4.29848 19.7015 4 19.3333 4ZM12 5.33333C9.83333 5.33333 8.12479 6.16984 7.0026 7.4323C5.88041 8.69475 5.33333 10.3519 5.33333 12C5.33333 13.6482 5.88043 15.3053 7.0026 16.5677C8.12479 17.8302 9.83333 18.6667 12 18.6667C14.1667 18.6667 15.8752 17.8302 16.9974 16.5677C18.1196 15.3053 18.6667 13.6482 18.6667 12C18.6667 10.3519 18.1196 8.69475 16.9974 7.4323C15.8752 6.16984 14.1667 5.33333 12 5.33333ZM12 6.66667C13.8333 6.66667 15.1248 7.33016 16.0026 8.31771C16.8804 9.30526 17.3333 10.6481 17.3333 12C17.3333 13.3519 16.8804 14.6948 16.0026 15.6823C15.1248 16.6698 13.8333 17.3333 12 17.3333C10.1667 17.3333 8.87521 16.6698 7.9974 15.6823C7.11959 14.6948 6.66667 13.3519 6.66667 12C6.66667 10.6481 7.11957 9.30526 7.9974 8.31771C8.87521 7.33016 10.1667 6.66667 12 6.66667Z" fill="#FFFEFE"/>
</svg>
