<svg width="24" height="24" viewBox="0 0 24 24" fill="none" xmlns="http://www.w3.org/2000/svg">
<path d="M3.86827 20.1317C1.7116 17.9751 0.5 15.05 0.5 12C0.5 8.95001 1.7116 6.02494 3.86827 3.86827C6.02494 1.7116 8.95001 0.5 12 0.5C15.05 0.5 17.9751 1.7116 20.1317 3.86827C22.2884 6.02494 23.5 8.95001 23.5 12C23.5 15.05 22.2884 17.9751 20.1317 20.1317C17.9751 22.2884 15.05 23.5 12 23.5C8.95001 23.5 6.02494 22.2884 3.86827 20.1317Z" stroke="white" stroke-linejoin="round"/>
<g clip-path="url(#clip0_141_722)">
<path d="M18.125 6.13232L3.75244 13.033L4.45801 13.2844L7.97242 14.5381L12.1802 12.0784L9.63136 15.3657L16.2354 18.6409L18.125 6.13232ZM17.3315 7.20654L15.7459 17.6997L10.5933 15.1448L14.6533 9.90918L7.90771 13.8521L5.37353 12.9475L17.3315 7.20654Z" fill="white" stroke="white" stroke-width="0.5"/>
</g>
<defs>
<clipPath id="clip0_141_722">
<rect width="15" height="15" fill="white" transform="translate(3.75 4.875)"/>
</clipPath>
</defs>
</svg>
