<svg width="32.000000" height="32.000000" viewBox="0 0 32 32" fill="none" xmlns="http://www.w3.org/2000/svg" xmlns:xlink="http://www.w3.org/1999/xlink">
	<desc>
			Created with Pixso.
	</desc>
	<defs>
		<clipPath id="clip31_39">
			<rect id="tg" rx="0.000000" width="19.000000" height="19.000000" transform="translate(5.500000 7.000000)" fill="white" fill-opacity="0"/>
		</clipPath>
	</defs>
	<path id="Vector" d="M4.68 27.31C1.68 24.31 0 20.24 0 16C0 11.75 1.68 7.68 4.68 4.68C7.68 1.68 11.75 0 16 0C20.24 0 24.31 1.68 27.31 4.68C30.31 7.68 32 11.75 32 16C32 20.24 30.31 24.31 27.31 27.31C24.31 30.31 20.24 32 16 32C11.75 32 7.68 30.31 4.68 27.31ZM10.62 28.97Q8.15 27.94 6.1 25.89Q4.05 23.84 3.02 21.37Q2 18.89 2 16Q2 13.1 3.02 10.62Q4.05 8.15 6.1 6.1Q8.15 4.05 10.62 3.02Q13.1 2 16 2Q18.89 2 21.37 3.02Q23.84 4.05 25.89 6.1Q27.94 8.15 28.97 10.62Q30 13.1 30 16Q30 18.89 28.97 21.37Q27.94 23.84 25.89 25.89Q23.84 27.94 21.37 28.97Q18.89 30 16 30Q13.1 30 10.62 28.97Z" fill="#FFFFFF" fill-opacity="1.000000" fill-rule="evenodd"/>
	<rect id="tg" rx="0.000000" width="19.000000" height="19.000000" transform="translate(5.500000 7.000000)" fill="#FFFFFF" fill-opacity="0"/>
	<g clip-path="url(#clip31_39)">
		<path id="Vector" d="M24.16 8.17L5 17.37L5.94 17.71L10.62 19.38L16.24 16.1L12.84 20.48L21.64 24.85L24.16 8.17ZM23.1 9.6L20.99 23.59L14.12 20.19L19.53 13.21L10.54 18.46L7.16 17.26L23.1 9.6Z" fill="#FFFFFF" fill-opacity="1.000000" fill-rule="nonzero"/>
		<path id="Vector" d="M5 17.37L5.94 17.71L10.62 19.38L16.24 16.1L12.84 20.48L21.64 24.85L24.16 8.17L5 17.37ZM20.99 23.59L14.12 20.19L19.53 13.21L10.54 18.46L7.16 17.26L23.1 9.6L20.99 23.59Z" stroke="#FFFFFF" stroke-opacity="1.000000" stroke-width="0.500000"/>
	</g>
</svg>
